<?xml version="1.0" standalone="no"?>
<!DOCTYPE svg PUBLIC "-//W3C//DTD SVG 20010904//EN"
 "http://www.w3.org/TR/2001/REC-SVG-20010904/DTD/svg10.dtd">
<svg version="1.0" xmlns="http://www.w3.org/2000/svg"
 width="512.000000pt" height="512.000000pt" viewBox="0 0 512.000000 512.000000"
 preserveAspectRatio="xMidYMid meet">

<g transform="translate(0.000000,512.000000) scale(0.100000,-0.100000)"
fill="#000000" stroke="none">
<path d="M2140 4651 c-429 -91 -783 -282 -1086 -585 -354 -355 -563 -796 -615
-1295 -16 -153 -6 -423 20 -571 142 -810 735 -1470 1517 -1690 217 -61 324
-74 584 -74 250 0 334 9 532 60 732 185 1322 765 1523 1498 52 192 69 316 70
517 0 175 0 176 -27 217 -61 92 -186 124 -279 70 -24 -14 -80 -46 -124 -72
-408 -237 -936 -218 -1332 47 -194 129 -347 303 -443 500 -102 211 -136 372
-127 616 6 173 30 294 87 430 39 96 46 140 29 198 -16 59 -81 127 -135 142
-53 15 -94 13 -194 -8z m-247 -601 c27 -30 27 -32 27 -161 0 -303 58 -565 177
-803 169 -338 436 -606 768 -770 350 -173 744 -225 1110 -145 118 25 147 24
183 -6 46 -38 47 -68 11 -171 -172 -491 -560 -876 -1058 -1048 -494 -172
-1057 -99 -1493 193 -200 134 -345 279 -479 479 -127 190 -219 419 -260 648
-30 167 -30 421 0 588 81 454 341 856 720 1114 188 129 238 143 294 82z"/>
</g>
</svg>
