<?xml version="1.0" standalone="no"?>
<!DOCTYPE svg PUBLIC "-//W3C//DTD SVG 20010904//EN"
 "http://www.w3.org/TR/2001/REC-SVG-20010904/DTD/svg10.dtd">
<svg version="1.0" xmlns="http://www.w3.org/2000/svg"
 width="535.000000pt" height="535.000000pt" viewBox="0 0 535.000000 535.000000"
 preserveAspectRatio="xMidYMid meet">

<g transform="translate(0.000000,535.000000) scale(0.100000,-0.100000)"
fill="#000000" stroke="none">
<path d="M0 2675 l0 -2675 2675 0 2675 0 0 2675 0 2675 -2675 0 -2675 0 0
-2675z m1742 2115 c59 -30 95 -66 126 -125 25 -50 25 -52 27 -315 1 -205 5
-285 19 -355 164 -846 817 -1484 1641 -1600 124 -18 370 -20 491 -5 179 22
298 52 489 120 104 37 181 38 252 2 86 -44 153 -153 153 -248 0 -58 -79 -285
-150 -429 -346 -705 -1004 -1178 -1790 -1286 -125 -17 -449 -18 -575 0 -817
110 -1520 650 -1838 1412 -119 284 -172 557 -171 879 0 270 34 481 113 720
109 326 286 620 520 864 148 156 379 337 481 378 59 24 153 19 212 -12z"/>
<path d="M1445 4293 c-297 -256 -508 -603 -606 -993 -163 -650 24 -1334 498
-1816 631 -643 1598 -768 2369 -308 246 146 471 361 626 598 59 90 182 325
174 333 -2 2 -44 -7 -92 -21 -208 -59 -307 -71 -599 -70 -249 0 -280 3 -405
27 -482 94 -915 330 -1245 678 -303 320 -532 765 -609 1184 -16 90 -35 275
-39 379 l-2 70 -70 -61z"/>
</g>
</svg>
